<?xml version="1.0" encoding="UTF-8" standalone="no"?>
<svg
   xmlns:dc="http://purl.org/dc/elements/1.1/"
   xmlns:cc="http://creativecommons.org/ns#"
   xmlns:rdf="http://www.w3.org/1999/02/22-rdf-syntax-ns#"
   xmlns:svg="http://www.w3.org/2000/svg"
   xmlns="http://www.w3.org/2000/svg"
   xmlns:sodipodi="http://sodipodi.sourceforge.net/DTD/sodipodi-0.dtd"
   xmlns:inkscape="http://www.inkscape.org/namespaces/inkscape"
   width="166.265"
   height="103.96101"
   viewBox="0 0 166.265 103.96101"
   version="1.1"
   id="svg167"
   sodipodi:docname="blob.svg"
   style="fill:none"
   inkscape:version="0.92.4 (5da689c313, 2019-01-14)">
  <metadata
     id="metadata171">
    <rdf:RDF>
      <cc:Work
         rdf:about="">
        <dc:format>image/svg+xml</dc:format>
        <dc:type
           rdf:resource="http://purl.org/dc/dcmitype/StillImage" />
      </cc:Work>
    </rdf:RDF>
  </metadata>
  <sodipodi:namedview
     pagecolor="#ffffff"
     bordercolor="#666666"
     borderopacity="1"
     objecttolerance="10"
     gridtolerance="10"
     guidetolerance="10"
     inkscape:pageopacity="0"
     inkscape:pageshadow="2"
     inkscape:window-width="1920"
     inkscape:window-height="1106"
     id="namedview169"
     showgrid="false"
     inkscape:zoom="0.28069386"
     inkscape:cx="786.01677"
     inkscape:cy="-412.43392"
     inkscape:window-x="-11"
     inkscape:window-y="-11"
     inkscape:window-maximized="1"
     inkscape:current-layer="svg167" />
  <g
     id="g1006"
     transform="translate(0,-24.999992)">
    <g
       id="g4"
       style="opacity:0.7">
      <path
         id="path2"
         d="M 57.2592,62.4832 C 57.8041,60.2907 57.6721,57.9845 56.8804,55.8685 56.0887,53.7526 54.6746,51.926 52.8243,50.6296 51.8,50.0435 50.8079,49.4029 49.8522,48.7106 48.3485,47.4469 47.5119,45.5805 46.8741,43.7199 45.3881,39.25 44.92,34.2418 42.3106,30.2048 39.9352,26.5305 35.2897,25.454 31.1942,25.0912 c -1.4919,-0.1345 -3.0599,-0.2048 -4.429,0.4154 -2.2876,1.0356 -3.3759,3.7328 -3.4753,6.2369 -0.0995,2.5041 0.5499,4.979 0.7137,7.4831 0.1639,2.5041 -0.2808,5.2656 -2.1296,6.9506 -1.8488,1.6851 -4.4934,1.8957 -6.939,2.235 -3.2097,0.4463 -6.36323,1.2307 -9.40794,2.3403 C 2.97029,51.6828 0.126835,53.3619 0.00396963,56.0767 -0.0954927,58.2999 1.69484,60.0669 3.04636,61.8338 5.56217,65.1395 6.82007,69.4924 5.97172,73.5353 5.12336,77.5781 2.198,81.2231 1.67143,85.4122 c -0.19183,1.0637 -0.04447,2.1607 0.42125,3.136 0.41037,0.664 0.95187,1.2374 1.5914,1.685 1.5797,1.2228 3.34076,2.1999 4.83269,3.5105 3.11263,2.7556 4.80343,6.7633 6.10233,10.7183 0.1229,0.38 0.234,0.767 0.3569,1.17 h -3.06 c -3.00169,0.008 -5.87827,1.204 -8.00082,3.326 -2.12255,2.123 -3.318415,5 -3.326138,8.001 0.007723,3.002 1.203588,5.879 3.326138,8.001 2.12255,2.123 4.99913,3.319 8.00082,3.326 h 30.5818 c 3.0017,-0.007 5.8783,-1.203 8.0009,-3.326 2.1225,-2.122 3.3184,-4.999 3.3261,-8.001 -0.0077,-3.001 -1.2036,-5.878 -3.3261,-8.001 -2.1226,-2.122 -4.9992,-3.318 -8.0009,-3.326 h -8.3841 c 1.9834,-2.656 4.0546,-5.148 7.1145,-6.1722 3.0599,-1.0239 6.7634,-0.4212 9.1622,-2.5567 1.1221,-1.101 1.8518,-2.5398 2.077,-4.0956 0.5087,-2.7917 0.0353,-5.6735 -1.3398,-8.1559 -0.9653,-1.7201 -2.3754,-3.2822 -2.6796,-5.2305 -0.2633,-1.6675 0.3393,-3.3525 1.1701,-4.8269 2.2994,-4.2125 6.389,-7.4948 7.6411,-12.111 z"
         inkscape:connector-curvature="0"
         style="opacity:0.7;fill:url(#paint0_linear)" />
    </g>
    <path
       id="path6"
       d="m 31.1006,27.5427 c -1.4217,-0.1287 -2.9254,-0.1931 -4.2184,0.3978 -2.1765,0.983 -3.212,3.5573 -3.3115,5.9444 -0.0995,2.3871 0.5266,4.739 0.6787,7.1261 0.1521,2.3871 -0.2692,5.0083 -2.0302,6.6231 -1.7611,1.6148 -4.2769,1.8078 -6.6113,2.1296 -3.0559,0.4233 -6.0584,1.1686 -8.95752,2.2233 -2.4339,0.8835 -5.14279,2.4866 -5.26565,5.0726 -0.09361,2.1121 1.61481,3.803 2.89612,5.488 2.39879,3.1477 3.59234,7.2958 2.77909,11.169 -0.81325,3.8732 -3.59234,7.3193 -4.09551,11.3095 -0.1826,1.0142 -0.04136,2.0602 0.4037,2.9897 0.39089,0.6318 0.9065,1.1773 1.51534,1.6031 1.50364,1.1701 3.18279,2.0945 4.60452,3.3524 2.96631,2.627 4.56941,6.4359 5.80981,10.2037 1.2191,3.7 2.1751,7.481 2.861,11.315 2.5567,-1.644 5.8507,-1.62 8.5888,-2.954 5.8098,-2.85 7.7581,-11.117 13.8897,-13.1469 2.9253,-0.9712 6.4358,-0.4037 8.7234,-2.4339 1.0721,-1.0538 1.7671,-2.4315 1.9775,-3.92 0.4785,-2.6596 0.0216,-5.4029 -1.293,-7.7639 -0.9185,-1.6382 -2.2583,-3.1242 -2.5509,-4.9789 -0.2516,-1.5856 0.3276,-3.1945 1.0999,-4.5987 2.2058,-4.0078 6.1024,-7.1145 7.2901,-11.5318 0.5175,-2.0843 0.3927,-4.2763 -0.3581,-6.2884 -0.7507,-2.012 -2.0923,-3.7501 -3.8486,-4.9859 C 50.7036,51.328 49.7603,50.7167 48.8517,50.0563 47.4241,48.851 46.605,47.0783 46.0141,45.2996 44.5982,41.0462 44.1477,36.272 41.667,32.428 39.4028,28.9176 35.003,27.8996 31.1006,27.5427 Z"
       inkscape:connector-curvature="0"
       style="fill:#4db6ac" />
    <path
       id="path8"
       stroke-miterlimit="10"
       d="m 31.0596,27.689 c 0,0 5.3944,72.2565 -8.6298,84.66"
       inkscape:connector-curvature="0"
       style="opacity:0.6;stroke:#535461;stroke-miterlimit:10" />
    <path
       id="path10"
       d="M 44.2647,104.263 H 10.3071 c -4.62072,0 -8.36655,3.746 -8.36655,8.367 v 4.838 c 0,4.621 3.74583,8.367 8.36655,8.367 h 33.9576 c 4.6207,0 8.3665,-3.746 8.3665,-8.367 v -4.838 c 0,-4.621 -3.7458,-8.367 -8.3665,-8.367 z"
       inkscape:connector-curvature="0"
       style="fill:#346bb4" />
    <path
       id="path12"
       stroke-miterlimit="10"
       d="m 1.40228,55.7315 c 0,0 13.78432,-1.6089 30.61682,8.6298"
       inkscape:connector-curvature="0"
       style="opacity:0.6;stroke:#535461;stroke-miterlimit:10" />
    <path
       id="path14"
       stroke-miterlimit="10"
       d="m 31.7501,72.9853 c 2.7662,-4.0376 6.3348,-7.4617 10.4831,-10.0588 4.1483,-2.5972 8.7874,-4.3115 13.6277,-5.0361"
       inkscape:connector-curvature="0"
       style="opacity:0.6;stroke:#535461;stroke-miterlimit:10" />
    <path
       id="path16"
       stroke-miterlimit="10"
       d="m 2.74796,85.1197 c 0,0 19.10844,-3.2413 27.89044,2.153"
       inkscape:connector-curvature="0"
       style="opacity:0.6;stroke:#535461;stroke-miterlimit:10" />
    <path
       id="path18"
       stroke-miterlimit="10"
       d="m 29.5677,94.6856 c 0,0 10.0047,-4.5401 21.2556,-0.8542"
       inkscape:connector-curvature="0"
       style="opacity:0.6;stroke:#535461;stroke-miterlimit:10" />
    <g
       id="g32"
       style="opacity:0.7">
      <g
         id="g22"
         style="opacity:0.1">
        <path
           id="path20"
           d="m 88,52.3988 v 10.8531 3.6157 48.2274 3.622 10.244 h 14.469 4.827 V 118.717 115.095 66.8676 63.2519 52.3988 h -4.827 z"
           inkscape:connector-curvature="0"
           style="opacity:0.1;fill:url(#paint1_linear)" />
      </g>
      <g
         id="g26"
         style="opacity:0.1">
        <path
           id="path24"
           d="m 108.501,52.3988 v 10.8531 3.6157 48.2274 3.622 10.244 h 14.469 4.821 V 118.717 115.095 66.8676 63.2519 52.3988 h -4.821 z"
           inkscape:connector-curvature="0"
           style="opacity:0.1;fill:url(#paint2_linear)" />
      </g>
      <g
         id="g30"
         style="opacity:0.1">
        <path
           id="path28"
           d="M 166.265,123.977 150.263,63.9833 149.333,60.4903 146.537,50 l -18.641,4.9731 2.797,10.4845 0.743,2.785 12.614,47.3094 0.936,3.498 2.639,9.9 z"
           inkscape:connector-curvature="0"
           style="opacity:0.1;fill:url(#paint3_linear)" />
      </g>
    </g>
    <path
       id="path34"
       d="M 108.296,54.271 H 89.9775 v 72.701 h 18.3185 z"
       inkscape:connector-curvature="0"
       style="fill:#535461;fill-opacity:0.1" />
    <path
       id="path36"
       d="M 108.296,64.5742 H 89.9775 v 3.4343 h 18.3185 z"
       inkscape:connector-curvature="0"
       style="fill:#5ec49e" />
    <path
       id="path38"
       d="M 108.296,113.802 H 89.9775 v 3.435 h 18.3185 z"
       inkscape:connector-curvature="0"
       style="fill:#5ec49e" />
    <path
       id="path40"
       d="m 108.296,54.271 h -4.581 v 72.701 h 4.581 z"
       inkscape:connector-curvature="0"
       style="opacity:0.1;fill:#000000" />
    <path
       id="path42"
       d="m 127.756,54.271 h -18.319 v 72.701 h 18.319 z"
       inkscape:connector-curvature="0"
       style="fill:#535461;fill-opacity:0.1" />
    <path
       id="path44"
       d="m 127.756,64.5742 h -18.319 v 3.4343 h 18.319 z"
       inkscape:connector-curvature="0"
       style="fill:#5ec49e" />
    <path
       id="path46"
       d="m 127.756,113.802 h -18.319 v 3.435 h 18.319 z"
       inkscape:connector-curvature="0"
       style="fill:#5ec49e" />
    <path
       id="path48"
       d="m 127.756,54.271 h -4.581 v 72.701 h 4.581 z"
       inkscape:connector-curvature="0"
       style="opacity:0.1;fill:#000000" />
    <path
       id="path50"
       d="m 145.535,52.0207 -17.701,4.7196 18.731,70.2467 17.7,-4.719 z"
       inkscape:connector-curvature="0"
       style="fill:#535461;fill-opacity:0.3" />
    <path
       id="path52"
       d="m 148.192,61.977 -17.7,4.7196 0.885,3.3184 17.7,-4.7196 z"
       inkscape:connector-curvature="0"
       style="fill:#5ec49e" />
    <path
       id="path54"
       d="m 160.879,109.543 -17.7,4.72 0.884,3.318 17.701,-4.719 z"
       inkscape:connector-curvature="0"
       style="fill:#5ec49e" />
    <path
       id="path56"
       d="m 145.543,52.0221 -4.426,1.1803 18.731,70.2466 4.426,-1.18 z"
       inkscape:connector-curvature="0"
       style="opacity:0.1;fill:#000000" />
  </g>
  <defs
     id="defs165">
    <linearGradient
       id="paint0_linear"
       x1="14943.8"
       y1="72150.898"
       x2="20612.4"
       y2="72150.898"
       gradientUnits="userSpaceOnUse">
      <stop
         stop-color="#808080"
         stop-opacity="0.25"
         id="stop116" />
      <stop
         offset="0.54"
         stop-color="#808080"
         stop-opacity="0.12"
         id="stop118" />
      <stop
         offset="1"
         stop-color="#808080"
         stop-opacity="0.1"
         id="stop120" />
    </linearGradient>
    <linearGradient
       id="paint1_linear"
       x1="4628.6602"
       y1="53408.898"
       x2="4628.6602"
       y2="43389.898"
       gradientUnits="userSpaceOnUse">
      <stop
         stop-color="#808080"
         stop-opacity="0.25"
         id="stop123" />
      <stop
         offset="0.54"
         stop-color="#808080"
         stop-opacity="0.12"
         id="stop125" />
      <stop
         offset="1"
         stop-color="#808080"
         stop-opacity="0.1"
         id="stop127" />
    </linearGradient>
    <linearGradient
       id="paint2_linear"
       x1="5323.5098"
       y1="53408.898"
       x2="5323.5098"
       y2="43389.898"
       gradientUnits="userSpaceOnUse">
      <stop
         stop-color="#808080"
         stop-opacity="0.25"
         id="stop130" />
      <stop
         offset="0.54"
         stop-color="#808080"
         stop-opacity="0.12"
         id="stop132" />
      <stop
         offset="1"
         stop-color="#808080"
         stop-opacity="0.1"
         id="stop134" />
    </linearGradient>
    <linearGradient
       id="paint3_linear"
       x1="12398.7"
       y1="55068.5"
       x2="12398.7"
       y2="44415"
       gradientUnits="userSpaceOnUse">
      <stop
         stop-color="#808080"
         stop-opacity="0.25"
         id="stop137" />
      <stop
         offset="0.54"
         stop-color="#808080"
         stop-opacity="0.12"
         id="stop139" />
      <stop
         offset="1"
         stop-color="#808080"
         stop-opacity="0.1"
         id="stop141" />
    </linearGradient>
    <linearGradient
       id="paint4_linear"
       x1="-7879.8999"
       y1="59790"
       x2="-7879.8999"
       y2="49771.102"
       gradientUnits="userSpaceOnUse">
      <stop
         stop-color="#808080"
         stop-opacity="0.25"
         id="stop144" />
      <stop
         offset="0.54"
         stop-color="#808080"
         stop-opacity="0.12"
         id="stop146" />
      <stop
         offset="1"
         stop-color="#808080"
         stop-opacity="0.1"
         id="stop148" />
    </linearGradient>
    <linearGradient
       id="paint5_linear"
       x1="-8538"
       y1="59790"
       x2="-8538"
       y2="49771.102"
       gradientUnits="userSpaceOnUse">
      <stop
         stop-color="#808080"
         stop-opacity="0.25"
         id="stop151" />
      <stop
         offset="0.54"
         stop-color="#808080"
         stop-opacity="0.12"
         id="stop153" />
      <stop
         offset="1"
         stop-color="#808080"
         stop-opacity="0.1"
         id="stop155" />
    </linearGradient>
    <linearGradient
       id="paint6_linear"
       x1="65877.203"
       y1="86570.398"
       x2="76077.297"
       y2="86570.398"
       gradientUnits="userSpaceOnUse">
      <stop
         stop-color="#808080"
         stop-opacity="0.25"
         id="stop158" />
      <stop
         offset="0.54"
         stop-color="#808080"
         stop-opacity="0.12"
         id="stop160" />
      <stop
         offset="1"
         stop-color="#808080"
         stop-opacity="0.1"
         id="stop162" />
    </linearGradient>
  </defs>
</svg>
